# xmcd
#
# Track frame offsets:
#	150
#	1725
#	17982
#	35325
#	68252
#	86437
#	110362
#	135375
#	159465
#	184105
#	208545
#	232122
#	255032
#
# Disc length: 3827 seconds
#
# Revision: 1
# Processed by: cddbd v1.4PL0 Copyright (c) Steve Scherf et al.
# Submitted via: audiograbber 1.81.02
#
DISCID=910ef10d
DTITLE=Larry Burton - Live At PJ's Blues Stop
DYEAR=1999
DGENRE=Blues
TTITLE0=Introduction
TTITLE1=It's My Life
TTITLE2=Good Idea At The Time
TTITLE3=As The Years Go Passing By
TTITLE4=If You're Leaving Me
TTITLE5=You Hurt Me So Bad
TTITLE6=Hey, Hey, Hey
TTITLE7=Going Back Home
TTITLE8=In My Younger Days
TTITLE9=Darling You Now I Love You
TTITLE10=Woke Up This Morning
TTITLE11=You're So Mean To Me
TTITLE12=Stick In Chicago
EXTD=
EXTT0=
EXTT1=
EXTT2=
EXTT3=
EXTT4=
EXTT5=
EXTT6=
EXTT7=
EXTT8=
EXTT9=
EXTT10=
EXTT11=
EXTT12=
PLAYORDER=
